<svg xmlns="http://www.w3.org/2000/svg" viewBox="0 0 64 64">
  <rect width="64" height="64" rx="14" fill="#141e40"/>
  <!-- Gear shape -->
  <path d="M28 8h8l1.5 6a18 18 0 0 1 4.6 1.9l5.5-2.7 5.7 5.7-2.7 5.5a18 18 0 0 1 1.9 4.6l6 1.5v8l-6 1.5a18 18 0 0 1-1.9 4.6l2.7 5.5-5.7 5.7-5.5-2.7a18 18 0 0 1-4.6 1.9l-1.5 6h-8l-1.5-6a18 18 0 0 1-4.6-1.9l-5.5 2.7-5.7-5.7 2.7-5.5a18 18 0 0 1-1.9-4.6L8 36v-8l6-1.5a18 18 0 0 1 1.9-4.6l-2.7-5.5 5.7-5.7 5.5 2.7a18 18 0 0 1 4.6-1.9L28 8z" fill="#1e2d5e"/>
  <!-- Globe circle -->
  <circle cx="32" cy="32" r="12" fill="#c0392b"/>
  <!-- Globe grid lines -->
  <circle cx="32" cy="32" r="12" fill="none" stroke="#f5f0e8" stroke-width="1.2"/>
  <line x1="32" y1="20" x2="32" y2="44" stroke="#f5f0e8" stroke-width="1.2"/>
  <line x1="20" y1="32" x2="44" y2="32" stroke="#f5f0e8" stroke-width="1.2"/>
  <ellipse cx="32" cy="32" rx="6" ry="12" fill="none" stroke="#f5f0e8" stroke-width="1"/>
  <line x1="21" y1="27" x2="43" y2="27" stroke="#f5f0e8" stroke-width="0.8"/>
  <line x1="21" y1="37" x2="43" y2="37" stroke="#f5f0e8" stroke-width="0.8"/>
</svg>
